<svg xmlns="http://www.w3.org/2000/svg" viewBox="0 0 216.92 107.87"><defs><style>.cls-1{fill:#003375;}.cls-2{fill:#fff;}.cls-3{fill:#ed1c24;}</style></defs><title>24-7</title><g id="Layer_2" data-name="Layer 2"><g id="Layer_1-2" data-name="Layer 1"><path class="cls-1" d="M14.71,93.54a8.31,8.31,0,0,1,2.57.36,5.69,5.69,0,0,1,1.85,1,4.06,4.06,0,0,1,1.11,1.45,4.53,4.53,0,0,1,.36,1.81,4.47,4.47,0,0,1-.36,1.81,3.63,3.63,0,0,1-1.09,1.43,5.87,5.87,0,0,1-1.85,1,8.31,8.31,0,0,1-2.57.36H12.05v4.77H9.27V93.54h5.44Zm2.9,4.57a3.46,3.46,0,0,0-.19-1.17,2.49,2.49,0,0,0-.6-.91,2.62,2.62,0,0,0-.92-.6,3.06,3.06,0,0,0-1.15-.22H12.07V101h2.68a3.16,3.16,0,0,0,1.17-.22,2.62,2.62,0,0,0,.92-.6,2.67,2.67,0,0,0,.6-.91,3.48,3.48,0,0,0,.21-1.18Z"/><path class="cls-1" d="M23.82,104.24l-1.29,3.18h-2L26.3,93.5h2.39l5.56,13.92h-3L30,104.24Zm5.56-1.69-2.38-6h-.1l-2.39,6Z"/><path class="cls-1" d="M45.19,107.42l-4.37-6.36H38.73v6.36H35.94V93.5h2.79v5.87h2.78l3.88-5.87h2.08L43.2,100l5.17,7.46Z"/><path class="cls-1" d="M60.5,105.73v1.69H49.86V93.5H60.2l-.3,1.69H52.64v4.18H58l-.3,1.69H52.64v4.67Z"/><path class="cls-1" d="M61.19,95.19V93.5H73.12l-.3,1.69H68.55v12.23H65.76V95.19Z"/><path class="cls-1" d="M74.29,97.6a7.15,7.15,0,0,1,1.59-2.33,7.58,7.58,0,0,1,2.39-1.55,7.95,7.95,0,0,1,6,0,7.47,7.47,0,0,1,2.39,1.55,7.24,7.24,0,0,1,2.17,5.19,7.24,7.24,0,0,1-.58,2.86,7.15,7.15,0,0,1-1.59,2.33,7.93,7.93,0,0,1-8.35,1.55,7.76,7.76,0,0,1-2.39-1.55,7.15,7.15,0,0,1-1.59-2.33,7.46,7.46,0,0,1,0-5.72Zm11.51,2.9a7.13,7.13,0,0,0-.37-2.43,6,6,0,0,0-1-1.81A4.17,4.17,0,0,0,83,95.13a3.94,3.94,0,0,0-3.46,0,4.36,4.36,0,0,0-1.45,1.13,6,6,0,0,0-1,1.81,7.8,7.8,0,0,0,0,4.81,5.72,5.72,0,0,0,1,1.81,4.33,4.33,0,0,0,1.47,1.14,4.13,4.13,0,0,0,4.93-1.14,5.85,5.85,0,0,0,1-1.83,7.2,7.2,0,0,0,.37-2.4Z"/><path class="cls-1" d="M98.17,105.23l-5.23-7.75H92.8v9.94H91.11V93.5H93.7l5.36,8.15h.1l5.37-8.15h2.29v13.92H104V97.48h-.1l-5.06,7.75Z"/><path class="cls-1" d="M111.79,104.24l-1.29,3.18h-2l5.76-13.92h2.39l5.56,13.92h-3L118,104.24Zm5.56-1.69-2.38-6h-.1l-2.39,6Z"/><path class="cls-1" d="M121.23,95.19V93.5h11.93l-.3,1.69h-4.27v12.23H125.8V95.19Z"/><path class="cls-1" d="M139.64,97a2.94,2.94,0,0,1,.36-1.39,3.87,3.87,0,0,1,1-1.21,5.24,5.24,0,0,1,1.61-.86,6.71,6.71,0,0,1,2.19-.34,5.91,5.91,0,0,1,2.31.42,7.69,7.69,0,0,1,1.65.92,7.08,7.08,0,0,1,1.33,1.35l-.9.79a6.47,6.47,0,0,0-1.13-1,5.85,5.85,0,0,0-1.27-.66,4.43,4.43,0,0,0-1.57-.28,2.62,2.62,0,0,0-1.89.66,2.08,2.08,0,0,0-.7,1.55,1.26,1.26,0,0,0,.58,1,6.75,6.75,0,0,0,1.43.78c.58.24,1.19.48,1.85.71a9.9,9.9,0,0,1,1.85.9,5.32,5.32,0,0,1,1.43,1.27,3.06,3.06,0,0,1,.58,1.91,3.51,3.51,0,0,1-.38,1.59,4.19,4.19,0,0,1-1.13,1.37,6,6,0,0,1-1.79,1,7.61,7.61,0,0,1-2.39.35,6.7,6.7,0,0,1-2.62-.47,7.16,7.16,0,0,1-1.81-1.08,6.16,6.16,0,0,1-1.43-1.55l.89-.89a6.1,6.1,0,0,0,1.19,1.19,6.81,6.81,0,0,0,1.46.84,5.08,5.08,0,0,0,2,.35,3.22,3.22,0,0,0,2.29-.75,2.53,2.53,0,0,0,.79-2,1.22,1.22,0,0,0-.55-1,7,7,0,0,0-1.43-.78c-.58-.24-1.2-.48-1.85-.73a11,11,0,0,1-1.85-.92,5,5,0,0,1-1.43-1.31,3.13,3.13,0,0,1-.56-1.91Z"/><path class="cls-1" d="M163.18,105.73v1.69H152.54V93.5h10.34l-.3,1.69h-7.25v4.18h5.36l-.29,1.69h-5.07v4.67Z"/><path class="cls-1" d="M168,107.44h-2.78V93.52h5.07a8.64,8.64,0,0,1,2.62.36,5.86,5.86,0,0,1,1.87,1,3.82,3.82,0,0,1,1.11,1.41A4.22,4.22,0,0,1,176.2,98a3.19,3.19,0,0,1-.44,1.79,4.27,4.27,0,0,1-.95,1.08,4.69,4.69,0,0,1-1.39.71v.1l4,5.77h-3.08l-3.44-5.07H168Zm2.27-6.58a3.41,3.41,0,0,0,1.23-.22,2.57,2.57,0,0,0,.93-.6,2.69,2.69,0,0,0,.6-.89,2.94,2.94,0,0,0,0-2.23,2.71,2.71,0,0,0-1.53-1.49,3.3,3.3,0,0,0-1.21-.22H168v5.57h2.29Z"/><path class="cls-1" d="M190.61,93.5l-5.36,13.92h-2.39L177.39,93.5h3l4.17,10.83h.1l4.08-10.83Z"/><path class="cls-1" d="M192.31,107.42V93.5h2.78v13.92Z"/><path class="cls-1" d="M197.69,97a2.94,2.94,0,0,1,.36-1.39,3.87,3.87,0,0,1,1-1.21,5.24,5.24,0,0,1,1.61-.86,6.76,6.76,0,0,1,2.19-.34,5.88,5.88,0,0,1,2.31.42,7.69,7.69,0,0,1,1.65.92,7.08,7.08,0,0,1,1.33,1.35l-.9.79a6.12,6.12,0,0,0-1.13-1,5.85,5.85,0,0,0-1.27-.66,4.43,4.43,0,0,0-1.57-.28,2.62,2.62,0,0,0-1.89.66,2.08,2.08,0,0,0-.7,1.55,1.26,1.26,0,0,0,.58,1,6.75,6.75,0,0,0,1.43.78c.58.24,1.19.48,1.85.71a9.9,9.9,0,0,1,1.85.9,5.18,5.18,0,0,1,1.43,1.27,3.06,3.06,0,0,1,.58,1.91,3.51,3.51,0,0,1-.38,1.59,4.19,4.19,0,0,1-1.13,1.37,6,6,0,0,1-1.79,1,7.61,7.61,0,0,1-2.39.35,6.7,6.7,0,0,1-2.62-.47,7.34,7.34,0,0,1-1.81-1.08,6.35,6.35,0,0,1-1.43-1.55l.89-.89a6.1,6.1,0,0,0,1.19,1.19,6.81,6.81,0,0,0,1.46.84,5.08,5.08,0,0,0,2,.35,3.22,3.22,0,0,0,2.29-.75,2.53,2.53,0,0,0,.79-2,1.19,1.19,0,0,0-.55-1,7,7,0,0,0-1.43-.78c-.58-.24-1.2-.48-1.85-.73a11.39,11.39,0,0,1-1.85-.92,5,5,0,0,1-1.43-1.31,3.13,3.13,0,0,1-.56-1.91Z"/><path class="cls-2" d="M176.85,0H152a8.51,8.51,0,0,0-6.1,2.58A8.5,8.5,0,0,0,139.83,0H40.07a40.07,40.07,0,0,0,0,80.14H106a10,10,0,0,0,6.86-2.75,8.43,8.43,0,0,0,6.25,2.75h57.72a40.07,40.07,0,0,0,0-80.14Z"/><path class="cls-3" d="M134.1,25.85l8.33-16a2.93,2.93,0,0,0-2.6-4.28H40.07A34.46,34.46,0,0,0,5.6,40.07h0A34.46,34.46,0,0,0,40.07,74.53H106a4.38,4.38,0,0,0,3.89-2.36l11.47-22Z"/><path class="cls-1" d="M124.87,54.29l-8.33,16a2.92,2.92,0,0,0,2.59,4.28h57.72a34.47,34.47,0,0,0,34.47-34.46h0A34.47,34.47,0,0,0,176.85,5.61H152a2.91,2.91,0,0,0-2.59,1.57L137.57,30Z"/><path class="cls-2" d="M155.3,26.09V23.6a2.37,2.37,0,0,1,.77-1.78,2.52,2.52,0,0,1,1.8-.74h28.36a2.48,2.48,0,0,1,1.79.74,2.44,2.44,0,0,1,.76,1.78V26a11,11,0,0,1-1.62,4.82l-13.9,25.72c-.91,1.66-2.06,2.49-3.47,2.49h-5.43a1.62,1.62,0,0,1-1.5-.7,1.43,1.43,0,0,1,0-1.52l15.31-28.26H157.87a2.52,2.52,0,0,1-1.83-.73A2.41,2.41,0,0,1,155.3,26.09Z"/><path class="cls-2" d="M31.8,56.68V52.81A11.64,11.64,0,0,1,33.19,47a10.8,10.8,0,0,1,3.56-3.86,25.23,25.23,0,0,1,4.82-2.41,39.89,39.89,0,0,1,5.31-1.63q2.67-.63,4.83-1.26,4.93-1.49,4.93-4.21c0-2-.51-3.33-1.54-4.05s-2.75-1.09-5.19-1.09H48c-3.4,0-5.65,1.09-6.72,3.26a3.83,3.83,0,0,1-3.58,2.49H34.58a2.37,2.37,0,0,1-2-.93,3.22,3.22,0,0,1-.72-2,7.68,7.68,0,0,1,2.32-5.45,14.49,14.49,0,0,1,5.76-3.64A21.4,21.4,0,0,1,47.11,21h3.57q11.63,0,14.73,6.47a13.52,13.52,0,0,1,1.22,5.9,11.12,11.12,0,0,1-1.38,5.72,10.84,10.84,0,0,1-3.55,3.75,25.9,25.9,0,0,1-4.83,2.4,46.2,46.2,0,0,1-5.31,1.65q-2.66.66-4.82,1.24c-3.31.91-5,2.11-5,3.57h22a2.51,2.51,0,0,1,2.54,2.52v2.49a2.34,2.34,0,0,1-.76,1.76,2.5,2.5,0,0,1-1.78.73H34.37a2.55,2.55,0,0,1-1.8-.73A2.31,2.31,0,0,1,31.8,56.68Z"/><path class="cls-2" d="M69,50V46.85a6,6,0,0,1,1.64-4.13L88.18,22.83a5.31,5.31,0,0,1,4.13-1.64h8.29a2.48,2.48,0,0,1,1.83.74,2.42,2.42,0,0,1,.74,1.77V45h2.91a2.47,2.47,0,0,1,1.83.74,2.42,2.42,0,0,1,.74,1.77V50a2.33,2.33,0,0,1-.77,1.76,2.51,2.51,0,0,1-1.8.73h-2.91v4.19a2.35,2.35,0,0,1-.77,1.76,2.55,2.55,0,0,1-1.8.73H95.67a2.45,2.45,0,0,1-1.76-.71,2.31,2.31,0,0,1-.73-1.73V52.49H71.6a2.51,2.51,0,0,1-1.8-.73A2.3,2.3,0,0,1,69,50Zm10.65-5h13.5V29.66Z"/></g></g></svg>