<svg xmlns="http://www.w3.org/2000/svg" viewBox="0 0 330.06 88.39"><defs><style>.cls-1{fill:#004185;}.cls-2{fill:#0096b0;fill-rule:evenodd;}</style></defs><title>Asset 1</title><g id="Layer_2" data-name="Layer 2"><g id="Layer_1-2" data-name="Layer 1"><path class="cls-1" d="M130.8,22.18c6.39,0,11.43,2.2,15,6.67s5.06,10.13,4.28,17a27,27,0,0,1-8,17,22.87,22.87,0,0,1-16.47,6.75c-5.66,0-9.93-1.82-12.89-5.47L110.38,84.9H98.05l7-61.62h11.32l-.64,5.66c3.7-4.47,8.79-6.66,15.27-6.66Zm-6.45,36.06A12.64,12.64,0,0,0,133,54.78a13.68,13.68,0,0,0,4.4-9q.65-5.62-2.26-9a9.82,9.82,0,0,0-7.92-3.47,12.66,12.66,0,0,0-8.38,3.1c-2.52,2.1-4,5.21-4.43,9.32s.29,7.12,2.23,9.31a9.91,9.91,0,0,0,7.76,3.28Z"/><path class="cls-1" d="M178.42,22.46c5.93,0,10.5,1.64,13.59,4.93s4.3,8,3.59,14.33l-3,26.84H181.24l.5-4.38a20.21,20.21,0,0,1-14.41,5.48q-7.26,0-11.07-3.84a11.32,11.32,0,0,1-3.09-9.77,13.1,13.1,0,0,1,5.75-9.67c3.37-2.38,7.7-3.56,12.91-3.56h11.32l.22-2c.28-2.47-.23-4.38-1.54-5.75s-3.32-2.1-6.06-2.1c-4,0-8.27,2.1-12.66,6.2l-5.53-7.57q8.85-9.32,20.77-9.31Zm-6.78,38.16a10.79,10.79,0,0,0,7-2.47,9.42,9.42,0,0,0,3.48-6.48l.06-.55h-9.68c-4.2,0-6.47,1.56-6.81,4.57a3.89,3.89,0,0,0,1.41,3.65,6.78,6.78,0,0,0,4.5,1.37Z"/><path class="cls-1" d="M232.1,68.47,216.75,43.55l-2.82,24.92H201.61L209.35,0h12.33l-4.83,42.63,18.44-19.35H249.9l-19.24,20,15.5,25.2Z"/><path class="cls-1" d="M293.27,43.46a30.65,30.65,0,0,1-1.59,6.75H259.91a10.23,10.23,0,0,0,3.82,6.57,12.65,12.65,0,0,0,8,2.29,22.63,22.63,0,0,0,13.12-4.57L289,62.9c-5.89,4.47-12.18,6.76-18.84,6.76-7.12,0-12.8-2.29-16.94-6.85s-5.87-10.23-5.12-16.89a25.79,25.79,0,0,1,8.75-16.8,25.69,25.69,0,0,1,17.66-6.84q9.45,0,14.66,6c3.47,4,4.91,9,4.24,15ZM272.88,32.41a11.31,11.31,0,0,0-7.13,2.46A14.82,14.82,0,0,0,261,41.54h20.63a7.79,7.79,0,0,0-2.25-6.67,9.2,9.2,0,0,0-6.57-2.46Z"/><path class="cls-1" d="M321.78,58.52c.73,0,2.66-.09,5.88-.37L326.5,68.47a36.55,36.55,0,0,1-8.62,1.09c-5.75,0-10.06-1.46-12.93-4.29s-3.94-7.12-3.3-12.78l2.13-18.89h-7.12l1.18-10.41H305l1.29-11.41h12.32l-1.29,11.41h12.78L328.89,33.6H316.11l-2,17.8c-.28,2.55.15,4.38,1.39,5.47s3.29,1.65,6.21,1.65Z"/><path class="cls-2" d="M42.25,3.89A42.26,42.26,0,0,0,0,46.14H0a5,5,0,0,0,5,5H5a5,5,0,0,0,5-5,32.26,32.26,0,0,1,64.52-.5c.06,3.69-1.22,6.12-5.76,6.12H38.18a5.62,5.62,0,0,1,0-11.24H62.51a21,21,0,1,0-6.2,21.25c5.44-5.83,14,2.34,8,7.9A32.23,32.23,0,0,1,42.25,78.4h0a5,5,0,0,0-5,5h0a5,5,0,0,0,5,5h0a42.25,42.25,0,1,0,0-84.5Z"/></g></g></svg>