<svg xmlns="http://www.w3.org/2000/svg" viewBox="0 0 244.08 303.6"><defs><style>.cls-1{fill:#ec1c24;}.cls-2,.cls-3{fill:#fff;}.cls-3{fill-rule:evenodd;}</style></defs><g id="Layer_2" data-name="Layer 2"><g id="Layer_1-2" data-name="Layer 1"><rect class="cls-1" width="244.08" height="303.6" rx="8.51"/><path class="cls-2" d="M66,55.19V58.6H50.9v-1l9.27-14.05H52.11V40.12H66v1L56.7,55.19Z"/><path class="cls-2" d="M79.83,56.19H72.27l-1,2.41H67.17l8.26-18.82h1.26L84.92,58.6H80.86Zm-3.78-9.32-2.44,6.21h4.87Z"/><path class="cls-2" d="M99.23,43.54H93.29V58.6H89.52V43.54H83.61V40.12H99.23Z"/><path class="cls-2" d="M117.71,40.12l-8.23,18.82h-1.26L100,40.12h4.28l4.62,11.2,4.6-11.2Z"/><path class="cls-2" d="M135.38,42.56a9.54,9.54,0,0,1,0,13.66,10.13,10.13,0,0,1-13.92,0,9.61,9.61,0,0,1,0-13.66,10.1,10.1,0,0,1,13.92,0Zm-7,.75A5.7,5.7,0,0,0,124.12,45a6,6,0,0,0-1.68,4.37,5.92,5.92,0,0,0,1.68,4.37,5.81,5.81,0,0,0,4.29,1.68,5.67,5.67,0,0,0,4.25-1.71,6.52,6.52,0,0,0,0-8.74,5.66,5.66,0,0,0-4.22-1.71Z"/><path class="cls-2" d="M152.82,58.66,148,52.13h-2.78v6.53h-3.78V40.18h7a6.92,6.92,0,0,1,4.78,1.62,5.44,5.44,0,0,1,1.85,4.31,5.59,5.59,0,0,1-.86,3.11,6,6,0,0,1-2.39,2.1l5.24,7.28Zm-7.58-9.86h3.16a2.89,2.89,0,0,0,2.07-.73,2.79,2.79,0,0,0,0-3.83,2.83,2.83,0,0,0-2-.73h-3.17Z"/><path class="cls-2" d="M163.16,58.6h-3.79V40.12h3.79Z"/><path class="cls-2" d="M181.27,43.54h-5.94V58.6h-3.78V43.54h-5.9V40.12h15.62Z"/><path class="cls-2" d="M196.2,43.54h-8.66v3.75h6.36v3.22h-6.36v4.68h9V58.6H183.76V40.12H196.2Z"/><path class="cls-2" d="M100,68.12,91.78,86.94H90.52L82.26,68.12h4.29l4.62,11.2,4.59-11.2Z"/><path class="cls-2" d="M113.9,86.66l-4.78-6.53h-2.78v6.53h-3.78V68.18h7a6.92,6.92,0,0,1,4.78,1.62,5.44,5.44,0,0,1,1.85,4.31,5.59,5.59,0,0,1-.86,3.11,6,6,0,0,1-2.39,2.1l5.24,7.28Zm-7.59-9.86h3.17a2.89,2.89,0,0,0,2.07-.73,2.79,2.79,0,0,0,0-3.83,2.83,2.83,0,0,0-2-.73h-3.17Z"/><path class="cls-2" d="M131.35,84.19h-7.56l-1,2.41h-4.06L127,67.78h1.26l8.23,18.82h-4.06Zm-3.78-9.32-2.44,6.21H130Z"/><path class="cls-2" d="M150.75,71.54h-5.94V86.6H141V71.54h-5.91V68.12h15.62Z"/><path class="cls-2" d="M162,84.19h-7.57l-1,2.41h-4.06l8.26-18.82h1.26l8.23,18.82h-4.06Zm-3.79-9.32-2.43,6.21h4.87Z"/><path class="cls-2" d="M67.12,96.15a6.94,6.94,0,0,1,4.78,1.62,5.47,5.47,0,0,1,1.85,4.31,5.57,5.57,0,0,1-1.85,4.32,6.84,6.84,0,0,1-4.78,1.68H64v6.52H60.17V96.12h7Zm-3.2,3.36v5.32h3.17a2.79,2.79,0,0,0,2.07-.76,2.64,2.64,0,0,0,.76-2,2.53,2.53,0,0,0-.76-1.9,2.84,2.84,0,0,0-2-.73Z"/><path class="cls-2" d="M88.17,114.66l-4.79-6.53H80.61v6.53H76.83V96.18h7a6.94,6.94,0,0,1,4.78,1.62,6,6,0,0,1,1,7.42,5.85,5.85,0,0,1-2.38,2.1l5.24,7.28Zm-7.59-9.86h3.17a2.9,2.9,0,0,0,2.07-.73,2.82,2.82,0,0,0,0-3.83,2.84,2.84,0,0,0-2-.73H80.61Z"/><path class="cls-2" d="M107.15,99.54H98.5v3.75h6.36v3.22H98.5v4.68h9v3.41H94.72V96.12h12.43Z"/><path class="cls-2" d="M124.65,99.54h-5.93V114.6h-3.78V99.54H109V96.12h15.62Z"/><path class="cls-2" d="M130.93,114.6h-3.78V96.12h3.78Z"/><path class="cls-2" d="M150.89,96.12v18.82h-1.26l-10.7-11.43V114.6h-3.78V95.78h1.24l10.72,11.34v-11Z"/><path class="cls-2" d="M163.91,95.93a9.55,9.55,0,0,1,4.79,1.2,8.75,8.75,0,0,1,3.36,3.36l-2.86,2a6,6,0,0,0-5.29-3.1,5.7,5.7,0,0,0-4.28,1.71A6,6,0,0,0,158,105.5a5.88,5.88,0,0,0,1.68,4.34,5.79,5.79,0,0,0,4.28,1.68,6,6,0,0,0,5.29-3.11l2.86,2a8.75,8.75,0,0,1-3.36,3.36,10.2,10.2,0,0,1-11.79-1.57,9.59,9.59,0,0,1,0-13.66,9.65,9.65,0,0,1,7-2.78Z"/><path class="cls-2" d="M185.89,112.19h-7.56l-1,2.41h-4.06l8.26-18.82h1.26L191,114.6h-4.06Zm-3.78-9.32-2.44,6.21h4.88Z"/><polygon class="cls-3" points="39.05 151.8 92.55 151.8 92.55 205.31 39.05 205.31 39.05 151.8 39.05 151.8"/><polygon class="cls-3" points="95.29 151.8 148.79 151.8 148.79 205.31 95.29 205.31 95.29 151.8 95.29 151.8"/><polygon class="cls-3" points="151.53 151.8 205.03 151.8 205.03 205.31 151.53 205.31 151.53 151.8 151.53 151.8"/><polygon class="cls-3" points="39.05 261.25 92.55 261.25 92.55 207.74 39.05 207.74 39.05 261.25 39.05 261.25"/><path class="cls-3" d="M106.8,272.5l42-11.25V207.74L106.8,219v53.5Zm5.76-34.41a2,2,0,1,1-2,2,2,2,0,0,1,2-2Z"/><polygon class="cls-3" points="151.53 261.25 205.03 261.25 205.03 207.74 151.53 207.74 151.53 261.25 151.53 261.25"/></g></g></svg>